<?xml version="1.0" encoding="UTF-8" standalone="no"?>
<!-- Created with Inkscape (http://www.inkscape.org/) -->

<svg
   xmlns:dc="http://purl.org/dc/elements/1.1/"
   xmlns:cc="http://creativecommons.org/ns#"
   xmlns:rdf="http://www.w3.org/1999/02/22-rdf-syntax-ns#"
   xmlns:svg="http://www.w3.org/2000/svg"
   xmlns="http://www.w3.org/2000/svg"
   xmlns:sodipodi="http://sodipodi.sourceforge.net/DTD/sodipodi-0.dtd"
   xmlns:inkscape="http://www.inkscape.org/namespaces/inkscape"
   width="48.983002mm"
   height="74.962997mm"
   viewBox="0 0 48.983001 74.962997"
   version="1.1"
   id="svg27"
   inkscape:version="0.92.4 (5da689c313, 2019-01-14)"
   sodipodi:docname="link.svg">
  <defs
     id="defs21" />
  <sodipodi:namedview
     id="base"
     pagecolor="#ffffff"
     bordercolor="#666666"
     borderopacity="1.0"
     inkscape:pageopacity="0.0"
     inkscape:pageshadow="2"
     inkscape:zoom="0.49497475"
     inkscape:cx="423.41353"
     inkscape:cy="273.15574"
     inkscape:document-units="mm"
     inkscape:current-layer="layer1"
     showgrid="false"
     inkscape:window-width="1680"
     inkscape:window-height="987"
     inkscape:window-x="-8"
     inkscape:window-y="-8"
     inkscape:window-maximized="1" />
  <metadata
     id="metadata24">
    <rdf:RDF>
      <cc:Work
         rdf:about="">
        <dc:format>image/svg+xml</dc:format>
        <dc:type
           rdf:resource="http://purl.org/dc/dcmitype/StillImage" />
        <dc:title></dc:title>
      </cc:Work>
    </rdf:RDF>
  </metadata>
  <g
     inkscape:label="Layer 1"
     inkscape:groupmode="layer"
     id="layer1"
     transform="translate(0,-222.037)">
    <g
       id="g965"
       transform="matrix(1,0,0,0.80951169,0,56.575027)">
      <path
         inkscape:connector-curvature="0"
         style="color:#000000;font-style:normal;font-variant:normal;font-weight:normal;font-stretch:normal;font-size:medium;line-height:normal;font-family:sans-serif;font-variant-ligatures:normal;font-variant-position:normal;font-variant-caps:normal;font-variant-numeric:normal;font-variant-alternates:normal;font-feature-settings:normal;text-indent:0;text-align:start;text-decoration:none;text-decoration-line:none;text-decoration-style:solid;text-decoration-color:#000000;letter-spacing:normal;word-spacing:normal;text-transform:none;writing-mode:lr-tb;direction:ltr;text-orientation:mixed;dominant-baseline:auto;baseline-shift:baseline;text-anchor:start;white-space:normal;shape-padding:0;clip-rule:nonzero;display:inline;overflow:visible;visibility:visible;opacity:1;isolation:auto;mix-blend-mode:normal;color-interpolation:sRGB;color-interpolation-filters:linearRGB;solid-color:#000000;solid-opacity:1;vector-effect:none;fill:#000000;fill-opacity:1;fill-rule:nonzero;stroke:none;stroke-width:10.42701244;stroke-linecap:butt;stroke-linejoin:miter;stroke-miterlimit:4;stroke-dasharray:none;stroke-dashoffset:0;stroke-opacity:1;color-rendering:auto;image-rendering:auto;shape-rendering:auto;text-rendering:auto;enable-background:accumulate"
         d="M 23.04717,204.397 C 10.36944,204.397 0,214.76646 0,227.44423 v 14.0462 c 2.04901,-4.92434 5.76102,-8.99885 10.42572,-11.5125 v -2.5337 c 0,-7.08156 5.53992,-12.61942 12.62145,-12.61942 h 2.88871 c 7.08153,0 12.62094,5.53786 12.62094,12.61942 v 19.52132 c 0,7.08156 -5.53941,12.61889 -12.62094,12.6189 h -2.88871 c -3.29803,0 -6.25771,-1.20491 -8.48268,-3.20394 v 11.99619 c 2.62813,1.0523 5.4894,1.63557 8.48268,1.63557 h 2.88871 c 12.67774,0 23.04665,-10.36895 23.04665,-23.04672 v -19.52132 c 0,-12.67777 -10.36891,-23.04723 -23.04665,-23.04723 z"
         id="path945" />
      <path
         id="path947"
         d="m 25.93536,297 c 12.67774,0 23.04717,-10.36946 23.04717,-23.04723 v -14.04621 c -2.04901,4.92435 -5.76101,8.99886 -10.42571,11.51251 v 2.5337 c 0,7.08155 -5.53992,12.61942 -12.62146,12.61942 h -2.88871 c -7.08153,0 -12.62093,-5.53787 -12.62093,-12.61942 v -19.52133 c 0,-7.08155 5.5394,-12.61889 12.62093,-12.6189 h 2.88871 c 3.29803,0 6.25772,1.20492 8.48268,3.20395 v -11.9962 c -2.62814,-1.05229 -5.4894,-1.63556 -8.48268,-1.63556 H 23.04665 C 10.36891,231.38473 0,241.75367 0,254.43144 v 19.52133 C 0,286.63054 10.36891,297 23.04665,297 Z"
         style="color:#000000;font-style:normal;font-variant:normal;font-weight:normal;font-stretch:normal;font-size:medium;line-height:normal;font-family:sans-serif;font-variant-ligatures:normal;font-variant-position:normal;font-variant-caps:normal;font-variant-numeric:normal;font-variant-alternates:normal;font-feature-settings:normal;text-indent:0;text-align:start;text-decoration:none;text-decoration-line:none;text-decoration-style:solid;text-decoration-color:#000000;letter-spacing:normal;word-spacing:normal;text-transform:none;writing-mode:lr-tb;direction:ltr;text-orientation:mixed;dominant-baseline:auto;baseline-shift:baseline;text-anchor:start;white-space:normal;shape-padding:0;clip-rule:nonzero;display:inline;overflow:visible;visibility:visible;opacity:1;isolation:auto;mix-blend-mode:normal;color-interpolation:sRGB;color-interpolation-filters:linearRGB;solid-color:#000000;solid-opacity:1;vector-effect:none;fill:#000000;fill-opacity:1;fill-rule:nonzero;stroke:none;stroke-width:10.42701244;stroke-linecap:butt;stroke-linejoin:miter;stroke-miterlimit:4;stroke-dasharray:none;stroke-dashoffset:0;stroke-opacity:1;color-rendering:auto;image-rendering:auto;shape-rendering:auto;text-rendering:auto;enable-background:accumulate"
         inkscape:connector-curvature="0" />
    </g>
  </g>
</svg>
